<svg xmlns="http://www.w3.org/2000/svg" viewBox="0 0 512 512" role="img" aria-label="Embassy Management EMS app icon">
  <defs>
    <linearGradient id="bg" x1="72" y1="48" x2="440" y2="464" gradientUnits="userSpaceOnUse">
      <stop offset="0" stop-color="#0e6ea8"/>
      <stop offset="0.54" stop-color="#144870"/>
      <stop offset="1" stop-color="#0f2a3c"/>
    </linearGradient>
    <linearGradient id="gold" x1="150" y1="120" x2="370" y2="398" gradientUnits="userSpaceOnUse">
      <stop offset="0" stop-color="#f8d982"/>
      <stop offset="1" stop-color="#d39a2c"/>
    </linearGradient>
    <filter id="shadow" x="-18%" y="-18%" width="136%" height="136%" color-interpolation-filters="sRGB">
      <feDropShadow dx="0" dy="18" stdDeviation="18" flood-color="#071521" flood-opacity="0.28"/>
    </filter>
  </defs>
  <rect width="512" height="512" rx="108" fill="url(#bg)"/>
  <circle cx="256" cy="214" r="118" fill="none" stroke="url(#gold)" stroke-width="16"/>
  <path d="M138 214h236M256 96c36 32 55 71 55 118s-19 86-55 118M256 96c-36 32-55 71-55 118s19 86 55 118M160 168h192M160 260h192" fill="none" stroke="#f3c75b" stroke-width="10" stroke-linecap="round" opacity="0.92"/>
  <g filter="url(#shadow)">
    <path d="M160 350h192M186 312h140M204 206h104v106H204zM188 206l68-48 68 48" fill="none" stroke="#f8fafc" stroke-width="18" stroke-linecap="round" stroke-linejoin="round"/>
    <path d="M256 164v148" fill="none" stroke="#f8fafc" stroke-width="12" stroke-linecap="round" opacity="0.95"/>
  </g>
  <rect x="138" y="374" width="236" height="68" rx="28" fill="#f8fafc" opacity="0.96"/>
  <text x="256" y="423" text-anchor="middle" font-family="Inter, Aptos, Arial, sans-serif" font-weight="850" font-size="46" letter-spacing="2" fill="#144870">EMS</text>
</svg>
