<svg xmlns="http://www.w3.org/2000/svg" viewBox="0 0 512 512" role="img" aria-label="EMS VISA passport app icon">
  <defs>
    <linearGradient id="cover" x1="126" y1="54" x2="386" y2="458" gradientUnits="userSpaceOnUse">
      <stop offset="0" stop-color="#155f91"/>
      <stop offset="0.58" stop-color="#144870"/>
      <stop offset="1" stop-color="#0f2a3c"/>
    </linearGradient>
    <linearGradient id="gold" x1="150" y1="96" x2="360" y2="388" gradientUnits="userSpaceOnUse">
      <stop offset="0" stop-color="#ffe08a"/>
      <stop offset="1" stop-color="#d39a2c"/>
    </linearGradient>
  </defs>
  <rect width="512" height="512" rx="110" fill="#f8fafc"/>
  <rect x="122" y="42" width="268" height="428" rx="34" fill="url(#cover)"/>
  <path d="M152 86h208M152 426h208" stroke="#0b2538" stroke-opacity=".35" stroke-width="10" stroke-linecap="round"/>
  <circle cx="256" cy="196" r="82" fill="none" stroke="url(#gold)" stroke-width="12"/>
  <path d="M174 196h164M256 114c26 23 39 50 39 82s-13 59-39 82M256 114c-26 23-39 50-39 82s13 59 39 82M192 164h128M192 228h128" fill="none" stroke="#f4c95c" stroke-width="8" stroke-linecap="round"/>
  <text x="256" y="330" text-anchor="middle" font-family="Inter, Aptos, Arial, sans-serif" font-weight="850" font-size="72" letter-spacing="0" fill="#ffffff">EMS</text>
  <rect x="164" y="354" width="184" height="54" rx="14" fill="#ffffff"/>
  <text x="256" y="392" text-anchor="middle" font-family="Inter, Aptos, Arial, sans-serif" font-weight="850" font-size="36" letter-spacing="0" fill="#144870">VISA</text>
</svg>
